<?xml version="1.0" encoding="UTF-8" standalone="no"?>
<!-- Created with Inkscape (http://www.inkscape.org/) -->

<svg
   xmlns:dc="http://purl.org/dc/elements/1.1/"
   xmlns:cc="http://creativecommons.org/ns#"
   xmlns:rdf="http://www.w3.org/1999/02/22-rdf-syntax-ns#"
   xmlns:svg="http://www.w3.org/2000/svg"
   xmlns="http://www.w3.org/2000/svg"
   xmlns:sodipodi="http://sodipodi.sourceforge.net/DTD/sodipodi-0.dtd"
   xmlns:inkscape="http://www.inkscape.org/namespaces/inkscape"
   width="210mm"
   height="297mm"
   viewBox="0 0 744.09448819 1052.3622047"
   id="svg4317"
   version="1.1"
   inkscape:version="0.91 r13725"
   sodipodi:docname="logo_eternity.svg">
  <defs
     id="defs4319" />
  <sodipodi:namedview
     id="base"
     pagecolor="#ffffff"
     bordercolor="#666666"
     borderopacity="1.0"
     inkscape:pageopacity="0.0"
     inkscape:pageshadow="2"
     inkscape:zoom="256"
     inkscape:cx="377.3732"
     inkscape:cy="523.97273"
     inkscape:document-units="px"
     inkscape:current-layer="layer1"
     showgrid="false"
     inkscape:window-width="1920"
     inkscape:window-height="1027"
     inkscape:window-x="1912"
     inkscape:window-y="-8"
     inkscape:window-maximized="1" />
  <metadata
     id="metadata4322">
    <rdf:RDF>
      <cc:Work
         rdf:about="">
        <dc:format>image/svg+xml</dc:format>
        <dc:type
           rdf:resource="http://purl.org/dc/dcmitype/StillImage" />
        <dc:title />
      </cc:Work>
    </rdf:RDF>
  </metadata>
  <g
     inkscape:label="Calque 1"
     inkscape:groupmode="layer"
     id="layer1">
    <g
       id="g91"
       class="com.sun.star.drawing.ClosedBezierShape"
       transform="matrix(1.6006973,0,0,1.6006973,-8920.8338,-3237.0285)">
      <g
         id="id4">
        <rect
           style="fill:none;stroke:none"
           id="rect94"
           height="141"
           width="202"
           y="2308"
           x="5608"
           class="BoundingBox" />
        <path
           style="fill:#000000;stroke:none"
           inkscape:connector-curvature="0"
           id="path96"
           d="m 5694,2410 c 50,11 96,-14 115,-58 -1,6 -1,12 -3,18 -13,55 -64,88 -120,75 -55,-12 -88,-64 -75,-120 1,-6 3,-12 5,-17 -2,48 29,91 78,102 z" />
      </g>
    </g>
    <g
       id="g98"
       class="com.sun.star.drawing.ClosedBezierShape"
       transform="matrix(1.6006973,0,0,1.6006973,-8914.4388,-3243.4077)">
      <g
         id="id5">
        <rect
           style="fill:none;stroke:none"
           id="rect101"
           height="199"
           width="163"
           y="2178"
           x="5644"
           class="BoundingBox" />
        <path
           style="fill:#000000;stroke:none"
           inkscape:connector-curvature="0"
           id="path103"
           d="m 5688,2302 c 22,46 71,67 117,54 -5,3 -10,6 -16,9 -51,25 -109,4 -134,-47 -24,-51 -4,-109 47,-133 6,-3 12,-5 17,-7 -39,28 -52,79 -31,124 z" />
      </g>
    </g>
    <g
       id="g105"
       class="com.sun.star.drawing.ClosedBezierShape"
       transform="matrix(1.6006973,0,0,1.6006973,-8914.4076,-3240.192)">
      <g
         id="id6">
        <rect
           style="fill:none;stroke:none"
           id="rect108"
           height="200"
           width="162"
           y="2156"
           x="5731"
           class="BoundingBox" />
        <path
           style="fill:#000000;stroke:none"
           inkscape:connector-curvature="0"
           id="path110"
           d="m 5774,2229 c -22,46 -8,97 31,125 -5,-2 -11,-4 -17,-7 -51,-25 -71,-83 -47,-134 25,-51 83,-71 134,-47 6,3 11,6 16,10 -47,-13 -95,8 -117,53 z" />
      </g>
    </g>
    <g
       id="g112"
       class="com.sun.star.drawing.ClosedBezierShape"
       transform="matrix(1.6006973,0,0,1.6006973,-8920.8537,-3238.595)">
      <g
         id="id7">
        <rect
           style="fill:none;stroke:none"
           id="rect115"
           height="201"
           width="119"
           y="2351"
           x="5809"
           class="BoundingBox" />
        <path
           style="fill:#000000;stroke:none"
           inkscape:connector-curvature="0"
           id="path117"
           d="m 5891,2451 c 0,-50 -34,-90 -82,-98 6,-2 12,-2 18,-2 57,0 100,43 100,100 0,57 -43,100 -100,100 -6,0 -12,0 -18,-1 48,-8 82,-48 82,-99 z" />
      </g>
    </g>
    <g
       id="g119"
       class="com.sun.star.drawing.ClosedBezierShape"
       transform="matrix(1.6006973,0,0,1.6006973,-8919.228,-3233.7767)">
      <g
         id="id8">
        <rect
           style="fill:none;stroke:none"
           id="rect122"
           height="141"
           width="202"
           y="2210"
           x="5800"
           class="BoundingBox" />
        <path
           style="fill:#000000;stroke:none"
           inkscape:connector-curvature="0"
           id="path124"
           d="m 5886,2248 c -49,11 -80,54 -78,102 -2,-5 -4,-11 -5,-17 -13,-56 20,-108 75,-120 56,-13 107,19 120,75 1,6 2,12 3,18 -19,-44 -66,-69 -115,-58 z" />
      </g>
    </g>
    <g
       id="g126"
       class="com.sun.star.drawing.ClosedBezierShape"
       transform="matrix(1.6006973,0,0,1.6006973,-8924.0338,-3232.1948)">
      <g
         id="id9">
        <rect
           style="fill:none;stroke:none"
           id="rect129"
           height="179"
           width="191"
           y="2295"
           x="5811"
           class="BoundingBox" />
        <path
           style="fill:#000000;stroke:none"
           inkscape:connector-curvature="0"
           id="path131"
           d="m 5939,2346 c -39,-31 -92,-30 -128,3 3,-5 6,-11 10,-16 36,-44 97,-51 141,-15 45,35 51,96 16,140 -4,5 -8,10 -13,14 24,-43 14,-94 -26,-126 z" />
      </g>
    </g>
    <g
       id="g133"
       class="com.sun.star.drawing.ClosedBezierShape"
       transform="matrix(1.6006973,0,0,1.6006973,-8924.0579,-3245.0156)">
      <g
         id="id10">
        <rect
           style="fill:none;stroke:none"
           id="rect136"
           height="178"
           width="191"
           y="2357"
           x="5657"
           class="BoundingBox" />
        <path
           style="fill:#000000;stroke:none"
           inkscape:connector-curvature="0"
           id="path138"
           d="m 5785,2483 c 40,-32 49,-83 26,-126 4,4 9,8 13,13 35,45 28,106 -16,141 -44,35 -105,29 -141,-16 -4,-5 -7,-10 -10,-15 36,32 89,34 128,3 z" />
      </g>
    </g>
  </g>
</svg>
